<?xml version="1.0" encoding="UTF-8" standalone="no"?>
<!-- Created with Inkscape (http://www.inkscape.org/) -->

<svg
   width="981.27142mm"
   height="399.48816mm"
   viewBox="0 0 981.27142 399.48816"
   version="1.1"
   id="svg1"
   xml:space="preserve"
   xmlns:inkscape="http://www.inkscape.org/namespaces/inkscape"
   xmlns:sodipodi="http://sodipodi.sourceforge.net/DTD/sodipodi-0.dtd"
   xmlns="http://www.w3.org/2000/svg"
   xmlns:svg="http://www.w3.org/2000/svg"><sodipodi:namedview
     id="namedview1"
     pagecolor="#ffffff"
     bordercolor="#111111"
     borderopacity="1"
     inkscape:showpageshadow="0"
     inkscape:pageopacity="0"
     inkscape:pagecheckerboard="1"
     inkscape:deskcolor="#d1d1d1"
     inkscape:document-units="mm"
     inkscape:export-bgcolor="#ffffff00"><inkscape:page
       x="0"
       y="0"
       width="981.27142"
       height="399.48816"
       id="page2"
       margin="0"
       bleed="0" /></sodipodi:namedview><defs
     id="defs1" /><g
     inkscape:label="Capa 1"
     inkscape:groupmode="layer"
     id="layer1"
     transform="translate(53.626199,-785.77634)"><g
       id="g7"
       transform="translate(1296.802,420.50495)"><path
         style="fill:#b9b9b9;fill-opacity:1"
         d="m -853.59026,764.59835 c 0.19099,-0.0764 0.4192,-0.067 0.50712,0.0209 0.0879,0.0879 -0.0684,0.15046 -0.34727,0.13897 -0.30822,-0.0127 -0.37092,-0.0754 -0.15985,-0.15986 z m 1.85208,0 c 0.191,-0.0764 0.4192,-0.067 0.50712,0.0209 0.0879,0.0879 -0.0684,0.15046 -0.34727,0.13897 -0.30822,-0.0127 -0.37092,-0.0754 -0.15985,-0.15986 z m 54.14544,-11.32863 c -7e-5,-5.96635 0.0347,-8.44487 0.0772,-5.50782 0.0426,2.93705 0.0426,7.81861 1.2e-4,10.84791 -0.0425,3.02931 -0.0773,0.62626 -0.0774,-5.34009 z m -43.54624,-10.91406 c -0.32911,-0.41965 -0.31975,-0.429 0.0999,-0.0999 0.44073,0.34565 0.58089,0.56292 0.36313,0.56292 -0.0549,0 -0.26331,-0.20836 -0.46302,-0.46302 z m 43.54612,-15.94115 c 0,-5.89359 0.0348,-8.30461 0.0774,-5.35781 0.0426,2.9468 0.0426,7.76883 0,10.71562 -0.0426,2.9468 -0.0774,0.53579 -0.0774,-5.35781 z m -159.59832,8.00542 c 1.12779,-0.0496 2.97326,-0.0496 4.10104,0 1.12779,0.0496 0.20506,0.0902 -2.05052,0.0902 -2.25557,0 -3.1783,-0.0406 -2.05052,-0.0902 z m 259.53189,-5.095 c 0,-0.3638 0.0601,-0.51263 0.13345,-0.33073 0.0734,0.1819 0.0734,0.47956 0,0.66146 -0.0734,0.1819 -0.13345,0.0331 -0.13345,-0.33073 z m -258.7528,-8.39937 c 1.55628,-0.0467 4.17566,-0.0469 5.82083,-3.7e-4 1.64518,0.0465 0.37185,0.0847 -2.82961,0.0849 -3.20145,2e-4 -4.54751,-0.0378 -2.99122,-0.0845 z m 241.59418,-0.26501 c 1.71808,-0.0462 4.45652,-0.046 6.08542,3.4e-4 1.6289,0.0463 0.2232,0.0841 -3.12378,0.0839 -3.34698,-1.8e-4 -4.67972,-0.0381 -2.96164,-0.0843 z M -1174.5464,669.3377 c 0.4729,-0.0587 1.2469,-0.0587 1.7198,0 0.4729,0.0587 0.086,0.10671 -0.8599,0.10671 -0.9459,0 -1.3328,-0.048 -0.8599,-0.10671 z m 590.0256,-3.6e-4 c 0.47555,-0.0589 1.18992,-0.0577 1.5875,0.003 0.39758,0.0604 0.008,0.10855 -0.86463,0.10707 -0.87313,-10e-4 -1.19842,-0.0509 -0.72287,-0.10977 z m -196.44834,-4.70304 c 0.002,-0.7276 0.0534,-0.99385 0.11418,-0.59167 0.0608,0.40218 0.0592,0.99749 -0.004,1.32292 -0.0628,0.32542 -0.11256,-0.004 -0.11057,-0.73125 z m 343.4841,-80.30104 c 0,-44.60213 0.0305,-62.84846 0.0678,-40.54739 0.0373,22.30106 0.0373,58.79372 0,81.09479 -0.0373,22.30107 -0.0678,4.05474 -0.0678,-40.5474 z m -343.48771,77.52292 c 0,-0.65484 0.0516,-0.92274 0.11466,-0.59531 0.0631,0.32742 0.0631,0.8632 0,1.19062 -0.0631,0.32742 -0.11466,0.0595 -0.11466,-0.59531 z m -547.29655,0.34244 c 0.3274,-0.0631 0.8632,-0.0631 1.1906,0 0.3274,0.0631 0.06,0.11466 -0.5953,0.11466 -0.6548,0 -0.9227,-0.0516 -0.5953,-0.11466 z m 316.5563,-0.0113 c 2.8644,-0.0427 7.6269,-0.0427 10.5834,-1.3e-4 2.95645,0.0426 0.6129,0.0775 -5.2079,0.0776 -5.8209,7e-5 -8.2398,-0.0348 -5.3755,-0.0775 z m -176.8239,-8.20248 c -0.3291,-0.41964 -0.3198,-0.429 0.1,-0.0999 0.4407,0.34564 0.5809,0.56292 0.3631,0.56292 -0.055,0 -0.2633,-0.20836 -0.463,-0.46303 z m 136.939,-5.15937 -0.7771,-0.8599 0.8599,0.77711 c 0.8015,0.72437 0.9815,0.94269 0.7771,0.94269 -0.046,0 -0.4325,-0.38696 -0.8599,-0.8599 z m -74.8605,-4.69635 c 0.5684,-0.58209 1.093,-1.05834 1.1658,-1.05834 0.073,0 -0.3328,0.47625 -0.9012,1.05834 -0.5684,0.58208 -1.093,1.05833 -1.1657,1.05833 -0.073,0 0.3327,-0.47625 0.9011,-1.05833 z m -85.3072,-6.76893 c 0.013,-0.30822 0.075,-0.37092 0.1598,-0.15985 0.077,0.191 0.067,0.4192 -0.021,0.50712 -0.088,0.0879 -0.1505,-0.0684 -0.139,-0.34727 z m 430.84992,-72.34149 c 0,-23.64714 0.0312,-33.32096 0.0693,-21.4974 0.0381,11.82357 0.0381,31.17123 0,42.99479 -0.0381,11.82357 -0.0693,2.14974 -0.0693,-21.49739 z m -287.67962,39.02604 c 0.01,-0.43656 0.065,-0.58312 0.1317,-0.32569 0.067,0.25743 0.063,0.61462 -0.01,0.79375 -0.072,0.17913 -0.1273,-0.0315 -0.1219,-0.46806 z m 95.85349,-32.54375 c 2e-5,-11.35062 0.0326,-15.95545 0.0724,-10.23295 0.0398,5.7225 0.0398,15.00937 -3e-5,20.6375 -0.0398,5.62812 -0.0724,0.94608 -0.0724,-10.40455 z m 436.68114,-17.79323 -0.64143,-0.7276 0.72761,0.64143 c 0.40018,0.35279 0.7276,0.68021 0.7276,0.7276 0,0.20751 -0.21426,0.0386 -0.81378,-0.64143 z m -436.74035,-3.9026 c 0.003,-0.58209 0.0571,-0.78906 0.12041,-0.45994 0.0633,0.32912 0.0609,0.80537 -0.005,1.05833 -0.0662,0.25297 -0.118,-0.0163 -0.11507,-0.59839 z m -0.0458,-1.60955 c 0.0127,-0.30823 0.0754,-0.37092 0.15985,-0.15985 0.0764,0.19099 0.067,0.4192 -0.0209,0.50711 -0.0879,0.0879 -0.15045,-0.0684 -0.13896,-0.34726 z m -181.59718,-4.00537 c 0.4697,-0.0584 1.3032,-0.0594 1.8521,-0.002 0.549,0.0573 0.1647,0.10509 -0.854,0.10627 -1.0186,0.001 -1.4678,-0.0457 -0.9981,-0.10414 z m 590.02092,0 c 0.4697,-0.0584 1.30314,-0.0594 1.85209,-0.002 0.54895,0.0573 0.16465,0.10509 -0.854,0.10627 -1.01864,0.001 -1.46778,-0.0457 -0.99809,-0.10414 z m -216.50406,-45.97883 c -1.1e-4,-4.51115 0.036,-6.39381 0.0802,-4.1837 0.0442,2.21011 0.0443,5.90105 2e-4,8.20208 -0.0441,2.30104 -0.0803,0.49276 -0.0804,-4.01838 z m 135.97064,-5.95313 c 0,-1.23692 0.0456,-1.74294 0.10128,-1.12448 0.0557,0.61847 0.0557,1.6305 0,2.24896 -0.0557,0.61846 -0.10128,0.11245 -0.10128,-1.12448 z m 188.24128,-31.93074 c 0.191,-0.0764 0.4192,-0.067 0.50712,0.0209 0.0879,0.0879 -0.0684,0.15045 -0.34726,0.13896 -0.30823,-0.0127 -0.37092,-0.0754 -0.15986,-0.15985 z m 6.33347,0.006 c 0.1819,-0.0734 0.47955,-0.0734 0.66146,0 0.1819,0.0734 0.0331,0.13346 -0.33073,0.13346 -0.36381,0 -0.51263,-0.0601 -0.33073,-0.13346 z m -18.11893,-5.29979 c 0.25743,-0.0671 0.61462,-0.0627 0.79375,0.01 0.17913,0.0725 -0.0315,0.12736 -0.46805,0.12197 -0.43657,-0.005 -0.58313,-0.0647 -0.3257,-0.13178 z m 3.30226,0.008 c 0.1819,-0.0734 0.47956,-0.0734 0.66146,0 0.1819,0.0734 0.0331,0.13345 -0.33073,0.13345 -0.3638,0 -0.51263,-0.06 -0.33073,-0.13345 z"
         id="path13"
         inkscape:export-filename="path13.svg"
         inkscape:export-xdpi="96"
         inkscape:export-ydpi="96" /><path
         style="fill:#a3a3a3;fill-opacity:1"
         d="m -852.81305,764.60387 c 0.1819,-0.0734 0.47956,-0.0734 0.66146,0 0.1819,0.0734 0.0331,0.13345 -0.33073,0.13345 -0.3638,0 -0.51263,-0.06 -0.33073,-0.13345 z m 94.73737,-0.006 c 0.191,-0.0764 0.4192,-0.067 0.50712,0.0209 0.0879,0.0879 -0.0683,0.15046 -0.34726,0.13897 -0.30823,-0.0127 -0.37092,-0.0754 -0.15986,-0.15986 z m 40.12253,-11.32863 c -7e-5,-5.96635 0.0347,-8.44487 0.0772,-5.50782 0.0426,2.93705 0.0426,7.81861 1.3e-4,10.84791 -0.0425,3.02931 -0.0773,0.62626 -0.0774,-5.34009 z m -119.67073,-1.98437 c 0,-0.36381 0.0601,-0.51263 0.13346,-0.33073 0.0734,0.1819 0.0734,0.47955 0,0.66145 -0.0734,0.18191 -0.13346,0.0331 -0.13346,-0.33072 z m 20.00042,-8.92948 c 3.6744,-0.0415 9.68705,-0.0415 13.36145,0 3.67441,0.0415 0.66808,0.0754 -6.68072,0.0754 -7.34881,0 -10.35514,-0.034 -6.68073,-0.0754 z m 99.66752,-13.16323 c 1.1e-4,-4.65667 0.0361,-6.52441 0.08,-4.15053 0.0439,2.37388 0.0438,6.18388 -1.9e-4,8.46667 -0.044,2.28279 -0.0799,0.34052 -0.0798,-4.31614 z m -208.21284,-6.48229 c 0.71666,-0.72761 1.36255,-1.32292 1.43532,-1.32292 0.0728,0 -0.45407,0.59531 -1.17074,1.32292 -0.71666,0.7276 -1.36255,1.32291 -1.43531,1.32291 -0.0728,0 0.45407,-0.59531 1.17073,-1.32291 z m -302.43382,-64.69063 c -10e-5,-4.36562 0.036,-6.18869 0.081,-4.05125 0.044,2.13744 0.045,5.70931 3e-4,7.9375 -0.044,2.22819 -0.081,0.47938 -0.081,-3.88625 z m 583.68431,-77.91979 c 0,-47.22151 0.0305,-66.5394 0.0677,-42.92865 0.0373,23.61076 0.0373,62.24654 0,85.85729 -0.0373,23.61076 -0.0677,4.29287 -0.0677,-42.92864 z m 130.96709,44.45 c 0,-22.77401 0.0312,-32.09065 0.0694,-20.70365 0.0382,11.38701 0.0382,30.02029 0,41.40729 -0.0382,11.38701 -0.0694,2.07037 -0.0694,-20.70364 z m -812.466,37.66019 c 0.1819,-0.0734 0.4795,-0.0734 0.6614,0 0.1819,0.0734 0.033,0.13345 -0.3307,0.13345 -0.3638,0 -0.5126,-0.0601 -0.3307,-0.13345 z m 309.0498,-0.006 c 0.191,-0.0764 0.4192,-0.067 0.5072,0.0209 0.088,0.0879 -0.068,0.15046 -0.3473,0.13897 -0.3082,-0.0127 -0.3709,-0.0754 -0.1599,-0.15986 z m 236.44987,-27.86509 c 0,-14.62484 0.032,-20.60773 0.0711,-13.29531 0.0391,7.31242 0.0391,19.2782 0,26.59062 -0.0391,7.31243 -0.0711,1.32954 -0.0711,-13.29531 z m -206.3735,-19.18229 c -10e-6,-21.24604 0.0313,-29.9767 0.0696,-19.40146 0.0383,10.57524 0.0383,27.95836 1e-5,38.62917 -0.0383,10.6708 -0.0696,2.01833 -0.0696,-19.22771 z m 365.56716,23.41563 c 0,-0.36381 0.0601,-0.51263 0.13345,-0.33073 0.0734,0.1819 0.0734,0.47955 0,0.66145 -0.0734,0.18191 -0.13345,0.0331 -0.13345,-0.33072 z m -590.01103,-2.24896 c 0.01,-0.43657 0.065,-0.58313 0.1318,-0.3257 0.067,0.25743 0.063,0.61462 -0.01,0.79375 -0.072,0.17913 -0.1273,-0.0315 -0.1219,-0.46805 z m -124.8045,-73.55417 c 0,-40.01823 0.031,-56.34995 0.068,-36.29272 0.037,20.05723 0.037,52.79942 0,72.76041 -0.037,19.961 -0.068,3.55054 -0.068,-36.46769 z m 215.7696,17.23031 c 0,-0.0549 0.2083,-0.2633 0.463,-0.46302 0.4196,-0.3291 0.429,-0.31975 0.1,0.0999 -0.3457,0.44073 -0.5629,0.58089 -0.5629,0.36312 z m -35.2558,-35.79408 c 0.1819,-0.0734 0.4796,-0.0734 0.6615,0 0.1819,0.0734 0.033,0.13345 -0.3307,0.13345 -0.3638,0 -0.5127,-0.06 -0.3308,-0.13345 z m 590.0209,0 c 0.1819,-0.0734 0.47955,-0.0734 0.66145,0 0.1819,0.0734 0.0331,0.13345 -0.33073,0.13345 -0.3638,0 -0.51263,-0.06 -0.33072,-0.13345 z m -214.92267,-29.98727 c 0,-4.43839 0.0362,-6.25409 0.0805,-4.0349 0.0443,2.2192 0.0443,5.8506 0,8.06979 -0.0443,2.2192 -0.0805,0.40349 -0.0805,-4.03489 z M -540.737,483.34463 c 0.25467,-0.0666 0.67139,-0.0666 0.92605,0 0.25466,0.0666 0.0463,0.121 -0.46302,0.121 -0.50933,0 -0.71769,-0.0544 -0.46303,-0.121 z m -8.06505,-3.71354 c 0.47555,-0.0589 1.18993,-0.0577 1.5875,0.003 0.39758,0.0604 0.008,0.10855 -0.86463,0.10707 -0.87313,-10e-4 -1.19842,-0.0509 -0.72287,-0.10977 z m 89.82131,-19.31234 c 0.40018,-0.0606 1.05502,-0.0606 1.45521,0 0.40018,0.0606 0.0728,0.11023 -0.72761,0.11023 -0.80036,0 -1.12778,-0.0496 -0.7276,-0.11023 z m 9.65729,0.0143 c 0.1819,-0.0734 0.47956,-0.0734 0.66146,0 0.1819,0.0734 0.0331,0.13346 -0.33073,0.13346 -0.3638,0 -0.51263,-0.0601 -0.33073,-0.13346 z m -17.72708,-5.30316 c 0.32742,-0.0631 0.8632,-0.0631 1.19062,0 0.32742,0.0631 0.0595,0.11466 -0.59531,0.11466 -0.65485,0 -0.92274,-0.0516 -0.59531,-0.11466 z"
         id="path12" /><path
         style="fill:#8c8c8c;fill-opacity:1"
         d="m -829.33675,739.90826 c 0,-13.31515 0.0322,-18.76226 0.0716,-12.10469 0.0394,6.65758 0.0394,17.5518 0,24.20938 -0.0393,6.65758 -0.0716,1.21047 -0.0716,-12.10469 z m -23.45976,-19.75991 c 0.19099,-0.0764 0.4192,-0.067 0.50712,0.0209 0.0879,0.0879 -0.0684,0.15046 -0.34727,0.13897 -0.30822,-0.0127 -0.37092,-0.0754 -0.15985,-0.15986 z m 156.38461,-0.54686 c -0.3291,-0.41964 -0.31975,-0.429 0.0999,-0.0999 0.44073,0.34564 0.58089,0.56291 0.36312,0.56291 -0.0549,0 -0.2633,-0.20836 -0.46302,-0.46302 z m 206.27422,-114.49844 c 0,-33.46979 0.0308,-47.12267 0.0684,-30.33973 0.0376,16.78294 0.0376,44.16731 -1e-5,60.85417 -0.0376,16.68685 -0.0684,2.95536 -0.0684,-30.51444 z m -835.08392,57.09894 c 0.2575,-0.0671 0.6146,-0.0627 0.7938,0.01 0.1791,0.0725 -0.032,0.12736 -0.4681,0.12197 -0.4365,-0.005 -0.5831,-0.0647 -0.3257,-0.13178 z m 3.3023,0.008 c 0.1819,-0.0734 0.4795,-0.0734 0.6614,0 0.1819,0.0734 0.033,0.13345 -0.3307,0.13345 -0.3638,0 -0.5126,-0.0601 -0.3307,-0.13345 z m 6.8957,-0.2701 c 0.191,-0.0764 0.4192,-0.067 0.5071,0.0209 0.088,0.0879 -0.068,0.15045 -0.3473,0.13896 -0.3082,-0.0127 -0.3709,-0.0754 -0.1598,-0.15985 z m -21.5284,-18.34009 c 0,-4.58391 0.036,-6.45914 0.08,-4.16719 0.044,2.29195 0.044,6.04242 0,8.33438 -0.044,2.29195 -0.08,0.41672 -0.08,-4.16719 z m 800.11448,0.52917 c 0.56839,-0.58209 1.09297,-1.05834 1.16573,-1.05834 0.0728,0 -0.33275,0.47625 -0.90114,1.05834 -0.56839,0.58208 -1.09297,1.05833 -1.16573,1.05833 -0.0728,0 0.33275,-0.47625 0.90114,-1.05833 z m -85.28635,-6.61459 c 0,-0.3638 0.0601,-0.51263 0.13345,-0.33073 0.0734,0.1819 0.0734,0.47956 0,0.66146 -0.0734,0.1819 -0.13345,0.0331 -0.13345,-0.33073 z m -590.04173,-2.271 c 0.013,-0.30823 0.075,-0.37092 0.1598,-0.15986 0.077,0.191 0.067,0.4192 -0.021,0.50712 -0.088,0.0879 -0.1505,-0.0684 -0.139,-0.34726 z m 605.94168,-1.56546 c 0.003,-0.58208 0.0571,-0.78905 0.12041,-0.45993 0.0633,0.32912 0.0609,0.80537 -0.005,1.05833 -0.0662,0.25297 -0.11801,-0.0163 -0.11507,-0.5984 z m -381.55413,-57.54687 c 0,-0.3638 0.0601,-0.51263 0.13345,-0.33073 0.0734,0.1819 0.0734,0.47956 0,0.66146 -0.0734,0.1819 -0.13345,0.0331 -0.13345,-0.33073 z m -208.84765,-1.76824 c 0.191,-0.0764 0.4192,-0.067 0.5071,0.0209 0.088,0.0879 -0.068,0.15045 -0.3472,0.13896 -0.3083,-0.0127 -0.371,-0.0754 -0.1599,-0.15985 z m 590.02086,0 c 0.191,-0.0764 0.4192,-0.067 0.50712,0.0209 0.0879,0.0879 -0.0684,0.15045 -0.34726,0.13896 -0.30823,-0.0127 -0.37092,-0.0754 -0.15986,-0.15985 z M -1026.6412,544.9878 c 0.3291,-0.0633 0.8053,-0.0609 1.0583,0.005 0.253,0.0662 -0.016,0.118 -0.5984,0.11507 -0.5821,-0.003 -0.789,-0.0571 -0.4599,-0.12041 z m -130.4427,-0.78185 c 0.1819,-0.0734 0.4796,-0.0734 0.6615,0 0.1819,0.0734 0.033,0.13345 -0.3308,0.13345 -0.3638,0 -0.5126,-0.06 -0.3307,-0.13345 z m 590.02086,0 c 0.1819,-0.0734 0.47956,-0.0734 0.66146,0 0.1819,0.0734 0.0331,0.13345 -0.33073,0.13345 -0.3638,0 -0.51263,-0.06 -0.33073,-0.13345 z m -779.99166,-54.2621 c 1.9281,-0.0452 5.0833,-0.0452 7.0114,0 1.9282,0.0452 0.3506,0.0822 -3.5057,0.0822 -3.8563,0 -5.4339,-0.037 -3.5057,-0.0822 z m 569.7802,-5e-5 c 2.00091,-0.045 5.27513,-0.045 7.27604,0 2.00091,0.0449 0.3638,0.0817 -3.63802,0.0817 -4.00183,0 -5.63894,-0.0368 -3.63802,-0.0817 z m 121.32747,-1.4e-4 c 2.08247,-0.0448 5.41622,-0.0446 7.40833,2.5e-4 1.99211,0.0449 0.28826,0.0815 -3.78632,0.0814 -4.07458,-1.3e-4 -5.70449,-0.0369 -3.62201,-0.0816 z m 207.9465,1.9e-4 c 1.92815,-0.0452 5.0833,-0.0452 7.01146,0 1.92815,0.0452 0.35057,0.0822 -3.50573,0.0822 -3.85631,0 -5.43388,-0.037 -3.50573,-0.0822 z M -550.11317,479.6421 c 0.191,-0.0764 0.4192,-0.067 0.50712,0.0209 0.0879,0.0879 -0.0684,0.15046 -0.34726,0.13897 -0.30823,-0.0127 -0.37092,-0.0754 -0.15986,-0.15986 z m 3.70417,0 c 0.191,-0.0764 0.4192,-0.067 0.50712,0.0209 0.0879,0.0879 -0.0684,0.15046 -0.34727,0.13897 -0.30822,-0.0127 -0.37092,-0.0754 -0.15985,-0.15986 z m 98.16042,-19.31458 c 0.191,-0.0764 0.4192,-0.067 0.50712,0.0209 0.0879,0.0879 -0.0684,0.15045 -0.34727,0.13896 -0.30822,-0.0127 -0.37092,-0.0754 -0.15985,-0.15985 z"
         id="path11" /><path
         style="fill:#767676;fill-opacity:1"
         d="m -733.13434,739.75392 c 0.0127,-0.30822 0.0754,-0.37092 0.15985,-0.15985 0.0764,0.191 0.067,0.4192 -0.0209,0.50712 -0.0879,0.0879 -0.15045,-0.0684 -0.13896,-0.34727 z m -129.79902,-20.74774 c 0.26339,-0.29104 0.53842,-0.52917 0.61118,-0.52917 0.0728,0 -0.0832,0.23813 -0.3466,0.52917 -0.26339,0.29104 -0.53842,0.52917 -0.61118,0.52917 -0.0728,0 0.0832,-0.23813 0.3466,-0.52917 z m 35.00001,-3.37037 c 0.76887,-0.0536 1.95949,-0.053 2.64584,10e-4 0.68634,0.0543 0.0573,0.0982 -1.39793,0.0975 -1.45521,-6.8e-4 -2.01677,-0.0451 -1.24791,-0.0987 z m 31.75001,0 c 0.76886,-0.0536 1.95948,-0.053 2.64583,10e-4 0.68635,0.0543 0.0573,0.0982 -1.39793,0.0975 -1.45521,-6.8e-4 -2.01677,-0.0451 -1.2479,-0.0987 z m 77.38175,-0.003 c 2.43748,-0.0437 6.42607,-0.0437 8.86355,0 2.43747,0.0437 0.44317,0.0794 -4.43177,0.0794 -4.87495,0 -6.86925,-0.0357 -4.43178,-0.0794 z m -385.17051,-91.08326 c 0,-22.77401 0.031,-32.09065 0.069,-20.70365 0.038,11.38701 0.038,30.02029 0,41.40729 -0.038,11.38701 -0.069,2.07037 -0.069,-20.70364 z m -62.6368,37.92477 c 0.1819,-0.0734 0.4796,-0.0734 0.6615,0 0.1819,0.0734 0.033,0.13345 -0.3308,0.13345 -0.3638,0 -0.5126,-0.0601 -0.3307,-0.13345 z m 589.89361,-0.008 c 0.25743,-0.0671 0.61461,-0.0627 0.79375,0.01 0.17913,0.0725 -0.0315,0.12736 -0.46806,0.12197 -0.43656,-0.005 -0.58313,-0.0647 -0.32569,-0.13178 z m -747.05611,-0.26795 c 0.3274,-0.0631 0.8632,-0.0631 1.1906,0 0.3274,0.0631 0.06,0.11466 -0.5953,0.11466 -0.6548,0 -0.9227,-0.0516 -0.5953,-0.11466 z m 674.54067,-14.76223 c 0.005,-0.43657 0.0647,-0.58313 0.13177,-0.3257 0.0671,0.25743 0.0627,0.61462 -0.01,0.79375 -0.0725,0.17913 -0.12736,-0.0315 -0.12197,-0.46805 z m 27.51667,-11.1125 c 0.005,-0.43657 0.0647,-0.58313 0.13177,-0.3257 0.0671,0.25743 0.0627,0.61462 -0.01,0.79375 -0.0725,0.17913 -0.12737,-0.0315 -0.12197,-0.46805 z m 15.86519,-1.19063 c 0,-0.3638 0.0601,-0.51263 0.13345,-0.33073 0.0734,0.1819 0.0734,0.47956 0,0.66146 -0.0734,0.1819 -0.13345,0.0331 -0.13345,-0.33073 z m -518.29443,-47.80738 c 0.2547,-0.0666 0.6714,-0.0666 0.9261,0 0.2546,0.0666 0.046,0.121 -0.463,0.121 -0.5094,0 -0.7177,-0.0544 -0.4631,-0.121 z m 590.02089,0 c 0.25466,-0.0666 0.67138,-0.0666 0.92604,0 0.25466,0.0666 0.0463,0.121 -0.46302,0.121 -0.50932,0 -0.71768,-0.0544 -0.46302,-0.121 z m -453.27653,-12.14279 c 0.0127,-0.30823 0.0754,-0.37092 0.15986,-0.15985 0.0764,0.19099 0.067,0.4192 -0.0209,0.50711 -0.0879,0.0879 -0.15046,-0.0684 -0.13897,-0.34726 z m -40.28716,-30.1889 c 0.191,-0.0764 0.4192,-0.067 0.5071,0.0209 0.088,0.0879 -0.068,0.15045 -0.3472,0.13896 -0.3083,-0.0127 -0.371,-0.0754 -0.1599,-0.15985 z m -133.35,-4.23334 c 0.191,-0.0764 0.4192,-0.067 0.5071,0.0209 0.088,0.0879 -0.068,0.15046 -0.3473,0.13897 -0.3082,-0.0127 -0.3709,-0.0754 -0.1598,-0.15986 z m 590.02085,0 c 0.19099,-0.0764 0.4192,-0.067 0.50712,0.0209 0.0879,0.0879 -0.0683,0.15046 -0.34727,0.13897 -0.30822,-0.0127 -0.37092,-0.0754 -0.15985,-0.15986 z M -460.684,460.32752 c 0.191,-0.0764 0.4192,-0.067 0.50712,0.0209 0.0879,0.0879 -0.0684,0.15045 -0.34726,0.13896 -0.30823,-0.0127 -0.37092,-0.0754 -0.15986,-0.15985 z m 13.22917,0 c 0.191,-0.0764 0.4192,-0.067 0.50712,0.0209 0.0879,0.0879 -0.0684,0.15045 -0.34727,0.13896 -0.30822,-0.0127 -0.37092,-0.0754 -0.15985,-0.15985 z"
         id="path10" /><path
         style="fill:#606060;fill-opacity:1"
         d="m -777.58435,739.75392 c 0.0127,-0.30822 0.0754,-0.37092 0.15986,-0.15985 0.0764,0.191 0.067,0.4192 -0.0209,0.50712 -0.0879,0.0879 -0.15045,-0.0684 -0.13897,-0.34727 z m -181.70282,-7.1217 c 10e-4,-1.01865 0.049,-1.40294 0.10627,-0.85399 0.0573,0.54894 0.0563,1.38238 -0.002,1.85208 -0.0584,0.4697 -0.10531,0.0206 -0.10414,-0.99809 z m 0.0225,-6.87917 c 2.8e-4,-2.61937 0.0399,-3.65515 0.088,-2.30172 0.0481,1.35343 0.0479,3.49656 -5.1e-4,4.7625 -0.0484,1.26595 -0.0878,0.1586 -0.0875,-2.46078 z m -208.12143,-63.28386 c 0.191,-0.0764 0.4192,-0.067 0.5071,0.0209 0.088,0.0879 -0.068,0.15045 -0.3473,0.13896 -0.3082,-0.0127 -0.3709,-0.0754 -0.1598,-0.15985 z m 148.1667,-0.26459 c 0.191,-0.0764 0.4192,-0.067 0.5071,0.0209 0.088,0.0879 -0.068,0.15046 -0.3473,0.13897 -0.3082,-0.0127 -0.3709,-0.0754 -0.1598,-0.15986 z m 413.34964,-26.16734 c 0.0127,-0.30823 0.0754,-0.37092 0.15986,-0.15986 0.0764,0.191 0.067,0.4192 -0.0209,0.50712 -0.0879,0.0879 -0.15045,-0.0683 -0.13897,-0.34726 z m -15.875,-0.79375 c 0.0127,-0.30823 0.0754,-0.37092 0.15986,-0.15986 0.0764,0.191 0.067,0.4192 -0.0209,0.50712 -0.0879,0.0879 -0.15045,-0.0684 -0.13897,-0.34726 z m -574.09464,-1.69775 c 0,-0.65484 0.052,-0.92273 0.1146,-0.59531 0.063,0.32742 0.063,0.8632 0,1.19062 -0.063,0.32743 -0.1146,0.0595 -0.1146,-0.59531 z m 112.9468,-29.63333 c 0,-0.3638 0.06,-0.51263 0.1334,-0.33073 0.073,0.1819 0.073,0.47956 0,0.66146 -0.073,0.1819 -0.1334,0.0331 -0.1334,-0.33073 z m -119.0834,-36.40226 c 0.013,-0.30822 0.075,-0.37092 0.1598,-0.15985 0.076,0.191 0.067,0.4192 -0.021,0.50712 -0.088,0.0879 -0.1504,-0.0684 -0.1389,-0.34727 z m 0,-1.5875 c 0.013,-0.30822 0.075,-0.37092 0.1598,-0.15985 0.076,0.191 0.067,0.4192 -0.021,0.50712 -0.088,0.0879 -0.1504,-0.0684 -0.1389,-0.34727 z m 676.10517,-10.49514 -0.7771,-0.85989 0.85989,0.7771 c 0.80155,0.72437 0.98152,0.94269 0.77711,0.94269 -0.0455,0 -0.43249,-0.38695 -0.8599,-0.8599 z m -541.71777,0.23084 c 0,-0.0549 0.2084,-0.2633 0.463,-0.46302 0.4197,-0.32911 0.429,-0.31975 0.1,0.0999 -0.3456,0.44073 -0.5629,0.58089 -0.5629,0.36313 z m 39.1087,-10.66418 c 0.191,-0.0764 0.4192,-0.067 0.5072,0.0209 0.088,0.0879 -0.068,0.15045 -0.3473,0.13896 -0.3082,-0.0127 -0.3709,-0.0754 -0.1599,-0.15985 z m -131.7625,-4.23334 c 0.191,-0.0764 0.4192,-0.067 0.5072,0.0209 0.088,0.0879 -0.068,0.15046 -0.3473,0.13897 -0.3082,-0.0127 -0.3709,-0.0754 -0.1599,-0.15986 z m 590.0209,0 c 0.19099,-0.0764 0.4192,-0.067 0.50712,0.0209 0.0879,0.0879 -0.0684,0.15046 -0.34727,0.13897 -0.30822,-0.0127 -0.37092,-0.0754 -0.15985,-0.15986 z m 93.67836,-30.97394 c -0.3291,-0.41965 -0.31975,-0.429 0.0999,-0.0999 0.44073,0.34565 0.58088,0.56292 0.36312,0.56292 -0.0549,0 -0.2633,-0.20836 -0.46302,-0.46302 z m -61.54438,-26.44976 c 0.40218,-0.0608 0.99749,-0.0592 1.32291,0.004 0.32542,0.0628 -0.004,0.11256 -0.73124,0.11058 -0.7276,-0.002 -0.99386,-0.0534 -0.59167,-0.11419 z m -13.34856,-3.69505 c 0.19099,-0.0764 0.4192,-0.067 0.50711,0.0209 0.0879,0.0879 -0.0683,0.15046 -0.34726,0.13897 -0.30823,-0.0127 -0.37092,-0.0754 -0.15985,-0.15986 z m 6.35,0 c 0.19099,-0.0764 0.4192,-0.067 0.50711,0.0209 0.0879,0.0879 -0.0684,0.15046 -0.34726,0.13897 -0.30823,-0.0127 -0.37092,-0.0754 -0.15985,-0.15986 z m 83.60833,-19.31458 c 0.191,-0.0764 0.4192,-0.067 0.50712,0.0209 0.0879,0.0879 -0.0683,0.15045 -0.34726,0.13896 -0.30823,-0.0127 -0.37092,-0.0754 -0.15986,-0.15985 z m 14.81667,0 c 0.191,-0.0764 0.4192,-0.067 0.50712,0.0209 0.0879,0.0879 -0.0684,0.15045 -0.34727,0.13896 -0.30822,-0.0127 -0.37092,-0.0754 -0.15985,-0.15985 z"
         id="path9" /><path
         style="fill:#494949;fill-opacity:1"
         d="m -864.93198,759.55357 -0.9118,-0.99218 0.99219,0.9118 c 0.92351,0.84868 1.11384,1.07257 0.9118,1.07257 -0.0442,0 -0.4907,-0.44648 -0.99219,-0.99219 z m 150.09914,-17.19706 c 1.70987,-0.0461 4.50784,-0.0461 6.21771,0 1.70987,0.0461 0.31089,0.0838 -3.10885,0.0838 -3.41974,0 -4.81873,-0.0377 -3.10886,-0.0838 z m -0.13229,-4.76243 c 1.63711,-0.0464 4.31602,-0.0464 5.95313,0 1.63711,0.0464 0.29765,0.0844 -2.97656,0.0844 -3.27422,0 -4.61368,-0.038 -2.97657,-0.0844 z m -403.04127,-79.83894 c -10e-5,-4.51115 0.036,-6.39381 0.08,-4.1837 0.044,2.21011 0.044,5.90105 2e-4,8.20208 -0.044,2.30104 -0.08,0.49276 -0.08,-4.01838 z m 85.5578,7.88905 c 0.191,-0.0764 0.4192,-0.067 0.5071,0.0209 0.088,0.0879 -0.068,0.15045 -0.3473,0.13896 -0.3082,-0.0127 -0.3709,-0.0754 -0.1598,-0.15985 z m 556.26937,-60.4706 -0.0656,-60.78363 -6.94531,-0.0751 -6.94531,-0.0751 6.95362,-0.0616 c 5.36545,-0.0475 6.98231,0.014 7.07927,0.26917 0.0691,0.18191 0.0949,27.59605 0.0573,60.92032 l -0.0684,60.58958 z m -688.82567,57.2956 c 0.191,-0.0764 0.4192,-0.067 0.5072,0.0209 0.088,0.0879 -0.068,0.15045 -0.3473,0.13896 -0.3082,-0.0127 -0.3709,-0.0754 -0.1599,-0.15985 z m -154.7812,-0.26459 c 0.191,-0.0764 0.4192,-0.067 0.5071,0.0209 0.088,0.0879 -0.068,0.15046 -0.3473,0.13897 -0.3082,-0.0127 -0.3709,-0.0754 -0.1598,-0.15986 z m 6.6146,-0.26458 c 0.191,-0.0764 0.4192,-0.067 0.5071,0.0209 0.088,0.0879 -0.068,0.15045 -0.3473,0.13896 -0.3082,-0.0127 -0.3709,-0.0754 -0.1598,-0.15985 z m -21.1508,-1.86978 c -0.3291,-0.41964 -0.3198,-0.429 0.1,-0.0999 0.2546,0.19972 0.463,0.40808 0.463,0.46302 0,0.21776 -0.2173,0.0776 -0.5629,-0.36313 z m 681.03749,-10.05417 c -0.32911,-0.41964 -0.31975,-0.429 0.0999,-0.0999 0.25467,0.19972 0.46302,0.40808 0.46302,0.46302 0,0.21776 -0.21727,0.0776 -0.56291,-0.36313 z m -542.58489,-14.88281 c 0,-0.3638 0.06,-0.51263 0.1334,-0.33073 0.073,0.1819 0.073,0.47956 0,0.66146 -0.073,0.1819 -0.1334,0.0331 -0.1334,-0.33073 z m 77.8701,-25.26771 c 0,-9.02229 0.033,-12.75158 0.074,-8.2873 0.041,4.46427 0.041,11.84614 0,16.40416 -0.041,4.55802 -0.074,0.90544 -0.074,-8.11686 z m 522.95687,-1.5551 c 0,-0.0549 0.20836,-0.2633 0.46302,-0.46302 0.41965,-0.32911 0.42901,-0.31975 0.0999,0.0999 -0.34564,0.44073 -0.56292,0.58089 -0.56292,0.36313 z m -487.83027,-5.72094 c 0,-0.50932 0.054,-0.71768 0.121,-0.46302 0.066,0.25466 0.066,0.67138 0,0.92604 -0.067,0.25466 -0.121,0.0463 -0.121,-0.46302 z m -35.2301,-28.20017 c 0.013,-0.30823 0.075,-0.37092 0.1598,-0.15985 0.076,0.19099 0.067,0.4192 -0.021,0.50711 -0.088,0.0879 -0.1505,-0.0684 -0.139,-0.34726 z m -83.8729,-7.67292 c 0.013,-0.30822 0.075,-0.37092 0.1598,-0.15985 0.076,0.191 0.067,0.4192 -0.021,0.50712 -0.088,0.0879 -0.1504,-0.0683 -0.1389,-0.34727 z m 205.93208,-9.4368 -0.50403,-0.59532 0.59531,0.50403 c 0.55945,0.47366 0.71576,0.6866 0.50403,0.6866 -0.0502,0 -0.3181,-0.26789 -0.59531,-0.59531 z m 6.7224,-0.64377 c 0.191,-0.0764 0.4192,-0.067 0.50712,0.0209 0.0879,0.0879 -0.0684,0.15046 -0.34727,0.13897 -0.30822,-0.0127 -0.37091,-0.0754 -0.15985,-0.15986 z m -125.92578,-0.54686 c -0.3291,-0.41964 -0.3198,-0.429 0.1,-0.0999 0.2546,0.19972 0.463,0.40808 0.463,0.46302 0,0.21776 -0.2173,0.0776 -0.5629,-0.36313 z m 48.9816,-1.78594 c 0.3418,-0.3638 0.681,-0.66145 0.7537,-0.66145 0.073,0 -0.1473,0.29765 -0.4891,0.66145 -0.3418,0.36381 -0.6809,0.66146 -0.7537,0.66146 -0.073,0 0.1474,-0.29765 0.4891,-0.66146 z m 70.87463,-1.38906 c -0.32911,-0.41964 -0.31975,-0.429 0.0999,-0.0999 0.25466,0.19972 0.46302,0.40808 0.46302,0.46302 0,0.21776 -0.21727,0.0776 -0.56291,-0.36313 z m -33.88253,-7.9198 c 0.191,-0.0764 0.4192,-0.067 0.5071,0.0209 0.088,0.0879 -0.068,0.15045 -0.3473,0.13896 -0.3082,-0.0127 -0.3709,-0.0754 -0.1598,-0.15985 z m 72.76023,-0.811 c 2.22819,-0.0443 5.80007,-0.0442 7.9375,2.1e-4 2.13744,0.0444 0.31438,0.0807 -4.05125,0.0806 -4.36562,-1.2e-4 -6.11443,-0.0365 -3.88625,-0.0808 z m 96.95345,1.2e-4 c 2.14643,-0.0445 5.65877,-0.0445 7.8052,0 2.14644,0.0445 0.39026,0.0809 -3.9026,0.0809 -4.29286,0 -6.04904,-0.0364 -3.9026,-0.0809 z m -294.86158,-3.42246 c 0.191,-0.0764 0.4192,-0.067 0.5071,0.0209 0.088,0.0879 -0.068,0.15046 -0.3473,0.13897 -0.3082,-0.0127 -0.3709,-0.0754 -0.1598,-0.15986 z m 126.2062,0 c 0.191,-0.0764 0.4192,-0.067 0.5071,0.0209 0.088,0.0879 -0.068,0.15046 -0.3472,0.13897 -0.3082,-0.0127 -0.3709,-0.0754 -0.1599,-0.15986 z m 463.81463,0 c 0.191,-0.0764 0.4192,-0.067 0.50712,0.0209 0.0879,0.0879 -0.0684,0.15046 -0.34727,0.13897 -0.30822,-0.0127 -0.37091,-0.0754 -0.15985,-0.15986 z M -982.57578,486.5042 c 1.86387,-0.0456 4.84043,-0.0454 6.61459,2.9e-4 1.77416,0.0457 0.24918,0.083 -3.38884,0.0828 -3.63802,-1.6e-4 -5.08961,-0.0376 -3.22575,-0.0831 z m 430.34595,-6.8621 c 0.19099,-0.0764 0.4192,-0.067 0.50711,0.0209 0.0879,0.0879 -0.0684,0.15046 -0.34726,0.13897 -0.30823,-0.0127 -0.37092,-0.0754 -0.15985,-0.15986 z m 7.9375,0 c 0.19099,-0.0764 0.4192,-0.067 0.50711,0.0209 0.0879,0.0879 -0.0684,0.15046 -0.34726,0.13897 -0.30823,-0.0127 -0.37092,-0.0754 -0.15985,-0.15986 z m 98.425,-19.31458 c 0.191,-0.0764 0.4192,-0.067 0.50712,0.0209 0.0879,0.0879 -0.0684,0.15045 -0.34727,0.13896 -0.30822,-0.0127 -0.37092,-0.0754 -0.15985,-0.15985 z m 15.13086,-13.4129 c 0,-0.0549 0.20836,-0.2633 0.46302,-0.46302 0.41964,-0.32911 0.429,-0.31975 0.0999,0.0999 -0.34565,0.44073 -0.56292,0.58089 -0.56292,0.36313 z m 3.96875,-4.23334 c 0,-0.0549 0.20836,-0.2633 0.46302,-0.46302 0.41964,-0.3291 0.429,-0.31975 0.0999,0.0999 -0.34565,0.44073 -0.56292,0.58089 -0.56292,0.36312 z"
         id="path8" /><path
         style="fill:#333333;fill-opacity:1"
         d="m -855.90373,764.22655 c -2.14658,-0.42107 -4.46763,-1.32114 -6.02169,-2.33511 -1.98162,-1.29295 -4.59117,-4.03855 -5.45082,-5.73499 l -0.67444,-1.33094 2.1265,-1.24092 c 1.16958,-0.6825 2.20192,-1.23605 2.29408,-1.2301 0.0922,0.006 0.59642,0.75008 1.12056,1.65364 1.13325,1.95359 3.39756,3.89952 5.5181,4.74223 1.21691,0.4836 2.00662,0.58463 4.64141,0.59376 3.00966,0.0104 3.26466,-0.0315 4.89656,-0.80485 2.10605,-0.99809 3.32186,-2.1742 4.17582,-4.03948 0.56088,-1.22512 0.63339,-1.69947 0.53077,-3.47209 -0.25156,-4.34557 -2.30285,-6.18732 -11.05836,-9.9287 -8.46672,-3.61797 -11.51882,-6.5337 -12.12695,-11.58509 -0.98959,-8.21993 4.67675,-14.36338 13.18529,-14.29551 4.41067,0.0352 8.17959,1.47809 11.14757,4.26778 l 1.63765,1.53929 -1.9342,1.62811 -1.9342,1.62812 -1.53884,-1.4247 c -2.08294,-1.92843 -3.85436,-2.59645 -6.98111,-2.63264 -5.44815,-0.0631 -8.68871,2.58618 -8.70459,7.11619 -0.005,1.5568 0.11724,2.07837 0.76953,3.27137 1.31484,2.40475 3.23284,3.66396 9.91944,6.51232 5.0714,2.16033 7.2925,3.46194 9.25306,5.4225 2.3085,2.3085 3.44694,5.19465 3.44694,8.73861 0,3.67352 -1.14404,6.47434 -3.68408,9.01929 -2.03649,2.04044 -4.18592,3.16938 -7.21883,3.79153 -2.18197,0.44759 -5.42423,0.50522 -7.33517,0.13038 z m 93.54718,-0.12281 c -9.87811,-1.96289 -17.59766,-9.55006 -19.59915,-19.26302 -0.49002,-2.37801 -0.5674,-6.66933 -0.1656,-9.18447 0.88075,-5.51328 4.28697,-11.34557 8.75357,-14.98829 1.99362,-1.62589 6.83075,-4.10892 9.12396,-4.68357 4.15848,-1.04208 8.83398,-1.0408 12.96458,0.004 2.48247,0.62765 6.74404,2.82836 9.01559,4.65573 3.81674,3.0704 7.04446,8.00471 8.36142,12.78229 0.49363,1.79077 0.58281,2.78882 0.57926,6.48229 -0.004,3.97434 -0.0678,4.57403 -0.71379,6.69087 -2.35237,7.70854 -7.66843,13.4806 -15.03768,16.32757 -3.88301,1.50013 -9.25882,1.97653 -13.28216,1.17704 z m 10.28361,-5.40798 c 6.39472,-2.01452 10.95986,-6.56532 13.14026,-13.09896 0.54034,-1.61915 0.6169,-2.35121 0.60873,-5.82083 -0.008,-3.59241 -0.0768,-4.16946 -0.72083,-6.08542 -1.04391,-3.10559 -2.41861,-5.27334 -4.95424,-7.81229 -3.87708,-3.88216 -8.19709,-5.65828 -13.76246,-5.65828 -5.63881,0 -9.87961,1.76544 -13.90123,5.78706 -4.03693,4.03693 -5.73056,8.14823 -5.72655,13.90122 0.003,4.71113 1.22022,8.29968 4.11784,12.14288 2.35871,3.12845 7.14229,6.14186 11.14431,7.02037 2.65725,0.5833 7.59571,0.39874 10.05417,-0.37575 z m -77.12605,-18.7875 v -24.07708 h 2.51355 2.51354 v 10.71562 10.71563 h 13.36146 13.36146 V 726.5468 715.83118 h 2.51354 2.51354 v 24.07708 24.07709 h -2.51354 -2.51354 v -10.84792 -10.84792 h -13.36146 -13.36146 v 10.84792 10.84792 h -2.51354 -2.51355 z m 106.09793,0 v -24.07708 h 9.59687 c 8.53508,0 9.79274,0.0543 11.36725,0.49091 6.28745,1.74346 10.46566,8.14868 9.52508,14.602 -0.75871,5.20551 -3.96042,9.00756 -9.19025,10.91347 -0.46542,0.16962 -3.96752,0.35027 -8.46666,0.43676 l -7.67292,0.14748 -0.0691,10.78177 -0.0691,10.78178 h -2.51057 -2.51057 z m 20.46133,-2.91645 c 1.86121,-0.73986 3.6976,-2.444 4.49275,-4.1692 0.84181,-1.82646 0.82486,-5.51048 -0.0334,-7.25286 -0.85082,-1.72732 -2.47607,-3.31433 -4.24209,-4.14227 -1.48507,-0.69624 -1.54953,-0.70213 -8.57393,-0.78344 l -7.0776,-0.0819 v 8.43835 c 0,4.64109 0.0893,8.53014 0.19844,8.64233 0.10914,0.11219 3.23453,0.14967 6.94531,0.0833 6.27934,-0.11232 6.85384,-0.1632 8.2905,-0.73429 z m -256.46968,-9.21984 v -6.64912 h 6.38219 c 7.25614,0 10.66192,-0.37972 14.309,-1.59532 5.44792,-1.81585 10.05208,-4.7744 14.7845,-9.50027 5.03933,-5.03234 8.59179,-9.9626 12.88065,-17.87629 3.12777,-5.77128 8.20747,-17.51341 8.67111,-20.04395 0.31357,-1.71145 -0.0815,-3.30309 -1.09939,-4.42983 -1.27937,-1.41611 -2.72935,-1.85193 -6.16738,-1.85371 l -2.79713,-10e-4 -24.0078,-60.2574 c -13.20428,-33.14157 -24.08148,-60.46576 -24.17153,-60.72042 -0.15356,-0.43421 0.32221,-0.46302 7.64722,-0.46302 h 7.81097 l 22.1342,55.43146 c 23.37982,58.5509 22.83738,57.28104 24.4688,57.28104 1.03566,0 2.06475,-1.45247 2.87793,-4.06194 0.41484,-1.3312 7.7654,-26.32215 16.33458,-55.53546 l 15.58032,-53.1151 h 7.73683 7.73684 l -0.24471,0.64364 c -0.13459,0.354 -10.9771,27.53002 -24.09445,60.39114 -13.11736,32.86113 -24.71796,62.24782 -25.77912,65.30376 -4.1738,12.01973 -7.52075,20.17549 -11.5094,28.04583 -10.33641,20.39565 -22.06978,31.93817 -35.38118,34.80569 -1.99878,0.43057 -3.91358,0.59211 -8.34836,0.70428 l -5.75469,0.14556 z m -220.59249,-58.90751 c -9.8899,-1.25421 -17.6602,-4.7834 -23.556,-10.69886 -5.511,-5.52935 -8.2609,-12.66795 -8.2609,-21.44484 0,-16.05432 8.4273,-28.3534 24.8677,-36.29258 8.3349,-4.02497 17.4422,-6.71863 36.0167,-10.65259 12.2809,-2.60102 15.9362,-3.44885 19.1489,-4.44147 7.5233,-2.32443 11.4312,-4.78521 12.9127,-8.13117 1.3132,-2.96586 0.04,-11.98755 -2.3642,-16.75825 -1.9231,-3.81539 -5.3128,-7.59802 -9.0118,-10.05655 -6.0093,-3.99405 -14.847,-6.27313 -24.2908,-6.26422 -6.8073,0.006 -13.2083,1.50233 -17.7069,4.13813 -5.1076,2.99265 -8.3963,6.87271 -12.8571,15.16912 -3.6344,6.75956 -5.1554,8.74607 -7.7418,10.11151 -0.8833,0.46629 -1.5641,0.59126 -3.252,0.59693 -2.8323,0.01 -3.9254,-0.65806 -5.1498,-3.14519 -0.8187,-1.66314 -0.8424,-1.80642 -0.7338,-4.44247 0.089,-2.14768 0.257,-3.07534 0.7965,-4.38517 2.6876,-6.52485 9.0583,-11.97596 18.9336,-16.20074 11.4686,-4.9064 23.5898,-6.29182 36.9651,-4.22503 15.1931,2.34768 27.3036,9.41995 34.41,20.09463 2.7446,4.12269 4.4956,8.31375 5.7388,13.73575 l 0.5833,2.54415 0.084,43.85469 0.084,43.85469 h -6.8628 -6.8627 l -0.094,-8.92969 c -0.089,-8.48563 -0.1223,-8.99169 -0.6661,-10.17659 -0.6594,-1.43677 -1.4184,-1.77257 -2.9498,-1.30499 -1.2924,0.39462 -1.7586,0.71941 -6.1754,4.30242 -13.3097,10.79715 -24.8563,16.67453 -37.1262,18.89783 -3.3129,0.6003 -11.0886,0.73123 -14.8789,0.25055 z m 17.1279,-6.49742 c 12.7409,-1.17699 24.9433,-7.20148 35.7674,-17.65899 4.5961,-4.44033 6.3063,-7.10933 7.7518,-12.09746 1.0916,-3.76696 1.2381,-6.89086 1.1472,-24.46483 l -0.084,-16.27187 -0.6937,-1.47916 c -0.8276,-1.76497 -1.8228,-2.53946 -3.7945,-2.95303 -1.3896,-0.29146 -1.7325,-0.23856 -6.9534,1.07276 -6.7427,1.69356 -8.3024,2.01037 -19.8485,4.03186 -12.6849,2.22087 -16.8561,3.41861 -23.1317,6.64215 -8.5334,4.38335 -15.664,11.32229 -19.5219,18.99736 -5.185,10.31522 -5.1446,22.80188 0.1021,31.5909 3.8106,6.38337 11.5719,11.19152 19.8916,12.32292 4.3709,0.59438 5.4841,0.62616 9.3677,0.26739 z m 573.61669,6.62234 c -14.28162,-1.7253 -24.82015,-8.25461 -29.66273,-18.37799 -0.6961,-1.45521 -1.59067,-3.83646 -1.98793,-5.29167 -0.67809,-2.48393 -0.72346,-2.99392 -0.74154,-8.33437 -0.0213,-6.29448 0.34143,-8.71776 2.01517,-13.46214 4.59147,-13.01502 16.32415,-22.23036 35.86432,-28.16936 6.95284,-2.11323 12.52822,-3.44937 26.61516,-6.37831 12.31933,-2.56143 17.53026,-4.0426 22.09417,-6.28011 3.00248,-1.472 5.11432,-3.27095 5.99768,-5.10904 1.37169,-2.85422 0.45545,-11.17946 -1.77431,-16.12187 -4.85308,-10.75718 -15.64847,-16.63594 -31.69707,-17.26103 -11.02321,-0.42936 -18.99687,2.19538 -25.00848,8.23219 -2.82122,2.83304 -4.49205,5.27311 -7.88203,11.51088 -1.37987,2.53903 -3.06311,5.36527 -3.74054,6.28054 -1.97038,2.66216 -4.42776,4.05774 -7.12461,4.04618 -3.6741,-0.0157 -5.79182,-2.72191 -5.79287,-7.40252 -9e-4,-3.95373 1.59172,-7.43494 5.13923,-11.23359 9.04533,-9.68564 27.35289,-15.81411 43.94907,-14.71197 15.84829,1.05247 27.55195,5.62821 36.54644,14.28843 5.87491,5.65658 9.70875,12.78263 11.46721,21.31442 0.39271,1.90537 0.44522,6.46814 0.52602,45.70677 l 0.0898,43.59011 h -7.01898 -7.01897 v -8.97861 c 0,-9.27998 -0.0666,-9.93686 -1.12208,-11.06358 -1.18729,-1.26745 -2.81237,-0.64556 -6.81767,2.60901 -14.76417,11.99688 -25.72458,17.76338 -38.23004,20.11364 -3.31685,0.62336 -11.34134,0.88785 -14.68438,0.48399 z m 19.05,-6.9078 c 1.09141,-0.14775 3.56318,-0.67248 5.49282,-1.16609 8.64146,-2.21048 17.18074,-6.93223 25.00089,-13.82411 6.59111,-5.80874 8.90656,-9.141 10.58646,-15.23543 0.58755,-2.13156 0.59171,-2.28242 0.59171,-21.46123 v -19.31458 l -0.73902,-1.25722 c -0.85026,-1.44645 -2.20791,-2.26807 -4.10772,-2.4859 -0.94389,-0.10822 -2.3406,0.14218 -5.86889,1.05217 -5.83875,1.50588 -10.3891,2.43155 -21.03437,4.279 -8.93563,1.55075 -13.88933,2.7566 -17.5948,4.28298 -12.87573,5.30389 -21.96492,14.02454 -26.01939,24.96439 -1.58942,4.28862 -2.12113,7.40258 -2.12139,12.42395 -3.6e-4,6.82017 1.26523,11.51768 4.34252,16.11829 4.51913,6.75616 12.05215,10.95625 21.41701,11.9412 2.24635,0.23625 7.09489,0.0832 10.05417,-0.31742 z M -1350.4282,577.98326 V 490.1416 h 6.8792 6.8792 v 81.07564 c 0,56.44236 0.086,81.69778 0.2848,83.12327 0.6281,4.51636 2.0795,6.56432 5.3578,7.56006 1.7843,0.54196 2.1968,0.55987 9.1593,0.39761 24.5707,-0.57261 54.9962,-3.77748 77.2731,-8.13958 4.65,-0.91054 11.7567,-2.59397 14.2213,-3.36876 l 1.6537,-0.51984 v 7.77746 7.77747 h -60.8542 -60.8542 z m 317.7646,87.67029 c -6.9798,-0.65342 -12.3631,-2.01873 -17.6687,-4.48114 -17.1836,-7.97516 -29.1683,-27.02668 -31.9424,-50.77769 -0.6037,-5.16827 -0.6142,-14.49486 -0.022,-19.31458 1.8844,-15.33157 7.1077,-27.34812 15.7396,-36.21007 7.4177,-7.61541 16.2607,-12.02992 27.0879,-13.52261 9.1982,-1.2681 19.8231,-0.36827 28.2776,2.39483 6.5509,2.14101 10.8633,4.66349 16.30647,9.53822 4.63741,4.15315 6.82012,4.45454 8.36351,1.15484 0.55565,-1.18795 0.55706,-1.26537 0.62802,-34.46198 l 0.0711,-33.27136 h 6.47732 6.47732 v 89.56146 89.56146 l -29.43484,-0.0423 c -16.1892,-0.0233 -29.8517,-0.0814 -30.361,-0.12904 z m 40.80175,-4.26893 c 1.98984,-0.97988 2.89623,-1.91829 3.889,-4.02636 l 0.68532,-1.45521 0.0783,-40.21666 c 0.0792,-40.69563 0.0245,-43.60156 -0.87911,-46.63738 -0.49656,-1.66836 -2.49906,-5.37084 -3.96857,-7.33762 -7.27304,-9.73418 -19.61099,-15.94242 -33.18359,-16.69747 -21.3893,-1.1899 -39.645,19.20002 -43.0197,48.04897 -0.4512,3.85681 -0.5042,11.78737 -0.108,16.14121 1.5274,16.78259 7.5874,30.89243 17.2156,40.08437 6.4871,6.19311 13.9889,10.0718 22.9869,11.88498 5.1313,1.03399 7.3959,1.15172 21.4374,1.11441 l 13.10294,-0.0348 z m 211.08162,-83.40136 V 490.1416 l 7.20989,0.01 7.2099,0.01 0.94593,1.37903 c 1.14605,1.67076 42.90668,60.83273 52.23939,74.00715 3.65957,5.16599 10.56375,14.92911 15.34262,21.69583 8.69058,12.30558 29.05467,41.04168 39.2301,55.35824 5.32471,7.49174 6.36893,8.67093 7.67847,8.67093 0.72349,0 1.55907,-1.10315 1.75947,-2.3229 0.0889,-0.54142 -2.2229,-36.3377 -5.13744,-79.54729 -2.91454,-43.20959 -5.29916,-78.71998 -5.29916,-78.91198 0,-0.2806 1.42751,-0.34908 7.27604,-0.34908 h 7.27604 v 87.84166 87.84167 h -6.95805 -6.95806 l -1.86577,-2.57969 c -1.02618,-1.41883 -5.65614,-7.9375 -10.28881,-14.48594 -4.63266,-6.54843 -11.59622,-16.37109 -15.47457,-21.82812 -3.87835,-5.45703 -12.58654,-17.72047 -19.35152,-27.25208 -6.76499,-9.53162 -17.54019,-24.71209 -23.94489,-33.73438 -6.40469,-9.02229 -14.12529,-19.91651 -17.15688,-24.20937 -23.53555,-33.32743 -25.19933,-35.64094 -26.15628,-36.37085 -1.21314,-0.9253 -2.41773,-0.90178 -2.90755,0.0568 -0.2045,0.40019 -0.44876,1.08551 -0.54281,1.52295 -0.094,0.43745 2.21333,36.16338 5.12751,79.39096 2.91418,43.22759 5.29851,78.79679 5.29851,79.04268 0,0.40885 -0.62182,0.44706 -7.27604,0.44706 h -7.27604 z m 290.77709,27.11979 v -60.72187 h 6.87917 6.87916 v 60.72187 60.72188 h -6.87916 -6.87917 z m 38.36459,-27.11979 V 490.1416 h 7.01145 7.01146 v 87.84166 87.84167 h -7.01146 -7.01145 z m -31.84624,-44.39166 c -0.0701,-0.11343 -0.56806,-1.57195 -1.10656,-3.24114 -1.44751,-4.48688 -2.76509,-6.92909 -4.85009,-8.98994 -1.99283,-1.96973 -3.72737,-2.96089 -7.80443,-4.45964 -1.56977,-0.57706 -2.92588,-1.12095 -3.01358,-1.20865 -0.29367,-0.29367 0.31962,-0.62847 2.4511,-1.33809 7.64317,-2.54459 10.94078,-5.98925 13.39307,-13.99028 0.45206,-1.4749 0.96592,-2.83484 1.14193,-3.02209 0.5239,-0.55736 1.18213,-0.0758 1.49704,1.09526 1.42836,5.31163 3.34054,9.30174 5.51706,11.51231 1.73263,1.75974 5.26942,3.64833 8.46485,4.52009 2.07034,0.56482 2.67947,0.91536 2.25199,1.29595 -0.13824,0.12308 -1.37484,0.60914 -2.74799,1.08014 -8.04535,2.75958 -11.14758,6.09328 -13.05739,14.03167 -0.29893,1.24256 -0.65685,2.40803 -0.79537,2.58993 -0.27912,0.36653 -1.14252,0.44665 -1.34163,0.12448 z m -61.94856,-50.62114 c -3.59151,-0.43207 -8.48836,-1.54226 -11.72456,-2.65815 -3.13966,-1.0826 -4.50319,-1.68248 -3.2244,-1.41855 1.64277,0.33904 5.79332,0.69021 9.92188,0.83948 15.91658,0.57544 33.25121,-4.52052 48.3513,-14.21411 6.45503,-4.14385 9.13816,-5.5168 13.82578,-7.0746 2.9606,-0.98387 7.7974,-2.07835 11.63266,-2.63224 4.30249,-0.62137 16.70635,-0.60815 21.83714,0.0233 7.58792,0.93381 16.04276,2.75509 21.03437,4.53106 l 2.64583,0.94137 -1.98437,-0.14616 c -12.87229,-0.94813 -24.25652,-1.18679 -31.11627,-0.65232 -5.27847,0.41126 -10.95159,1.29013 -15.4504,2.39354 -7.0812,1.73679 -10.95355,3.37575 -16.80104,7.11103 -10.67923,6.8217 -19.52017,10.35288 -31.22084,12.46996 -2.53155,0.45805 -4.43509,0.59136 -9.3927,0.65776 -3.41974,0.0458 -7.17021,-0.0313 -8.33438,-0.17134 z m 119.41905,-21.68553 c -1.25009,-0.29559 -5.92498,-2.9748 -7.04014,-4.03474 -1.61602,-1.536 -2.31574,-3.85648 -1.67281,-5.54752 0.1334,-0.35088 2.65666,-3.21613 5.60724,-6.36723 4.11302,-4.39253 5.5134,-5.72926 6.00208,-5.72926 0.81833,0 7.39338,3.86265 7.58093,4.45358 0.078,0.24586 -0.92866,3.839 -2.2371,7.98474 -2.0281,6.426 -2.49397,7.64263 -3.15865,8.24899 -1.25145,1.14166 -3.00193,1.48319 -5.08155,0.99144 z m 7.91754,-21.53686 c -1.27009,-0.7507 -2.37618,-1.43183 -2.45798,-1.51363 -0.17388,-0.17389 19.34802,-33.64765 19.69121,-33.76406 0.16928,-0.0574 4.3661,2.23446 4.99524,2.72789 0.0938,0.0736 -19.44188,33.50188 -19.71854,33.74115 -0.11037,0.0955 -1.23984,-0.44064 -2.50993,-1.19135 z m 29.56133,-30.48457 c -3.00686,-1.60458 -18.05557,-10.53889 -18.32239,-10.87787 -0.48837,-0.62045 -0.40329,-1.59439 0.22861,-2.61683 0.30765,-0.49777 0.516,-0.94088 0.46303,-0.98469 -0.053,-0.0438 -0.66255,-0.40645 -1.35459,-0.80585 -1.16134,-0.67025 -1.73646,-1.53333 -1.47955,-2.22034 0.0506,-0.13528 5.01828,-6.02756 11.03932,-13.09395 7.94843,-9.32841 11.16647,-12.92437 11.74729,-13.12684 1.34005,-0.46715 2.68201,-0.32071 4.18944,0.45716 3.56806,1.84121 10.76804,6.24779 11.53073,7.05712 0.83511,0.88617 1.51946,2.66313 1.29293,3.35716 -0.85462,2.6183 -11.42232,31.21104 -11.69619,31.64605 -0.4854,0.77101 -1.26182,0.75267 -2.79997,-0.0661 -0.6834,-0.3638 -1.30511,-0.66146 -1.38158,-0.66146 -0.0765,0 -0.3745,0.46157 -0.6623,1.0257 -0.73313,1.43706 -1.40083,1.65465 -2.79478,0.91079 z"
         id="path7" /></g></g></svg>
