<?xml version="1.0" encoding="UTF-8" standalone="no"?>
<!-- Created with Inkscape (http://www.inkscape.org/) -->

<svg
   version="1.1"
   id="svg1"
   width="320.86447"
   height="321.19226"
   viewBox="0 0 320.86447 321.19226"
   sodipodi:docname="426086911_905779457664992_867272975012918660_n (2).jpg"
   xmlns:inkscape="http://www.inkscape.org/namespaces/inkscape"
   xmlns:sodipodi="http://sodipodi.sourceforge.net/DTD/sodipodi-0.dtd"
   xmlns="http://www.w3.org/2000/svg"
   xmlns:svg="http://www.w3.org/2000/svg">
  <defs
     id="defs1" />
  <sodipodi:namedview
     id="namedview1"
     pagecolor="#ffffff"
     bordercolor="#111111"
     borderopacity="1"
     inkscape:showpageshadow="0"
     inkscape:pageopacity="0"
     inkscape:pagecheckerboard="1"
     inkscape:deskcolor="#d1d1d1"
     showgrid="false">
    <inkscape:page
       x="0"
       y="0"
       width="320.86447"
       height="321.19226"
       id="page2"
       margin="0"
       bleed="0" />
  </sodipodi:namedview>
  <g
     inkscape:groupmode="layer"
     inkscape:label="Image"
     id="g1"
     transform="translate(-128.05609,488.60992)">
    <path
       style="fill:#000000;fill-opacity:1"
       d="m 270.99914,-167.80152 c -7.55686,-0.82182 -24.34935,-4.46619 -32.17049,-6.98176 -11.33512,-3.6458 -30.87874,-13.29716 -41.57032,-20.52896 -12.57826,-8.50796 -33.35758,-29.37035 -41.64583,-41.81233 -12.23676,-18.36934 -20.27612,-37.40732 -24.77454,-58.66853 -2.38486,-11.27173 -2.73164,-15.18702 -2.77929,-31.37867 -0.041,-13.91716 0.40188,-20.94841 1.78765,-28.38372 12.53198,-67.24012 63.50025,-118.81539 129.15282,-130.69094 18.24043,-3.29942 43.55016,-3.12781 60.60155,0.4109 27.25394,5.65606 49.16199,15.81187 70.14845,32.51837 4.32738,3.44486 7.74999,6.937 7.74997,7.90744 -3e-5,1.70177 -4.3808,5.7818 -8.6496,8.05579 -1.90555,1.01508 -2.9828,0.44728 -9.48734,-5.00061 -16.91992,-14.17131 -34.45751,-22.56685 -59.40285,-28.43713 -10.96141,-2.5795 -13.54684,-2.81121 -30.96018,-2.77466 -16.93833,0.0355 -20.34049,0.33678 -31.3537,2.77613 -15.31456,3.39206 -23.81588,6.39657 -36.6463,12.95141 -19.31513,9.86776 -42.02154,29.98161 -53.40588,47.30814 -15.98512,24.3287 -23.79808,48.73098 -24.76827,77.35888 -0.4744,13.99862 -0.23839,18.37548 1.55681,28.87131 9.4053,54.98911 46.78037,98.06657 100.24309,115.53739 26.57802,8.68529 62.18749,8.69715 88.39679,0.0294 37.04066,-12.24977 69.06505,-39.80656 86.45547,-74.39439 9.68937,-19.2712 14.3521,-38.9662 14.45191,-61.04374 l 0.0701,-15.5 -79,-0.5 -79,-0.5 -0.30157,-6.39843 c -0.16586,-3.51914 0.15738,-6.85738 0.71832,-7.41832 1.24908,-1.24908 169.15071,-0.96893 170.4322,0.28437 0.46692,0.45665 1.26088,7.73825 1.76437,16.18133 3.92041,65.74248 -29.78342,124.16516 -89.18533,154.59508 -10.57756,5.41859 -24.43074,10.1449 -38.92799,13.28113 -9.36309,2.02554 -39.36744,3.44701 -49.5,2.34509 z m 2.96199,-30.4127 c -49.51932,-5.63733 -91.7527,-39.67516 -108.84581,-87.72388 -9.80063,-27.54954 -9.4036,-59.98218 1.06007,-86.59625 8.17256,-20.7867 16.76412,-34.23232 30.75911,-48.13741 25.00008,-24.83951 55.69293,-37.50532 90.8654,-37.49681 22.21424,0.005 41.85587,4.79814 61.53946,15.01624 11.269,5.84994 25.15978,15.44659 25.15978,17.382 0,1.70674 -8.49637,9.59857 -10.33385,9.59857 -0.7582,0 -3.5562,-1.66276 -6.21777,-3.69502 -32.93728,-25.14948 -77.33687,-30.27288 -116.40019,-13.43176 -24.0903,10.38589 -45.14619,30.8922 -57.04942,55.56037 -11.31547,23.45011 -14.155,46.5346 -8.93842,72.66648 9.21457,46.15938 46.58512,82.50123 92.86587,90.30956 17.83211,3.00857 39.33971,1.65893 55.07378,-3.45598 28.65914,-9.31665 55.24968,-32.30548 68.7684,-59.45366 3.97951,-7.9916 9.03979,-23.02772 9.42318,-28 l 0.30842,-4 -61.9068,-0.25769 c -44.83654,-0.18663 -62.28878,-0.5747 -63.2921,-1.40738 -0.98529,-0.81772 -1.30096,-3.05338 -1.0932,-7.74232 l 0.2921,-6.59261 h 71 71 l -0.11984,7.5 c -0.21863,13.68348 -5.1503,32.6194 -12.37088,47.5 -8.80792,18.15187 -22.38282,34.57269 -39.00928,47.18738 -9.50645,7.21266 -28.86063,17.0957 -39.5,20.17033 -17.13409,4.95149 -37.30445,6.89097 -53.03801,5.09984 z m 2.49319,-31.05701 c -15.6404,-2.02282 -34.37983,-9.31938 -45.93531,-17.88581 -36.10284,-26.76414 -50.84005,-73.90899 -35.68751,-114.16558 12.11268,-32.18042 37.54325,-55.37746 69.42265,-63.32539 15.19763,-3.78895 34.63041,-3.72305 48.74101,0.1653 11.49138,3.16659 29.35529,11.6005 36.50398,17.23425 l 2.5,1.97021 -3.95295,4.05323 c -2.17412,2.22929 -4.87556,4.05325 -6.0032,4.05325 -1.12763,0 -4.23491,-1.55324 -6.90506,-3.45165 -11.10613,-7.89616 -29.71521,-13.55247 -44.54875,-13.54079 -22.98213,0.0181 -40.39869,6.11981 -57.82458,20.2582 -9.17938,7.44765 -15.66204,15.74726 -21.27211,27.23424 -9.96092,20.39562 -12.04535,40.89656 -6.30385,62 4.30788,15.83401 15.50776,32.58402 29.17734,43.63625 8.53726,6.9026 17.16798,11.4784 29.13316,15.44568 7.90678,2.62165 9.65154,2.82176 25,2.86738 16.19873,0.0481 16.67746,-0.0124 26.21919,-3.31621 12.77585,-4.4236 22.23107,-10.08243 33.52166,-20.06229 9.34348,-8.25881 11.8477,-11.3095 10.74638,-13.09148 -0.3788,-0.61291 -15.69069,-0.97933 -40.9238,-0.97933 -33.55074,0 -40.51575,-0.23762 -41.49341,-1.41563 -0.69293,-0.83493 -1.05081,-3.8089 -0.87244,-7.25 l 0.30242,-5.83437 52.75,-0.25884 c 46.81021,-0.2297 52.75,-0.0864 52.75,1.2722 0,2.00063 -7.41127,16.73207 -11.31285,22.48664 -4.5137,6.65741 -17.29475,19.53363 -24.49496,24.67735 -12.41393,8.86832 -31.23646,15.79339 -47.13214,17.34055 -10.92237,1.0631 -13.06561,1.05172 -22.10487,-0.11736 z"
       id="path9" />
  </g>
</svg>
